<svg width="120" height="28" viewBox="0 0 120 28" fill="none" xmlns="http://www.w3.org/2000/svg">
<g filter="url(#filter0_d_94_4)">
<path d="M9.45756 4.16V26H6.41256V4.16H1.02256V1.5H14.8476V4.16H9.45756ZM21.3048 26C19.2515 26 17.7465 25.5683 16.7898 24.705C15.8331 23.8183 15.3548 22.3833 15.3548 20.4V14.1C15.3548 12.0933 15.7865 10.6583 16.6498 9.795C17.5131 8.93167 18.9481 8.5 20.9548 8.5H21.8998C23.5565 8.5 24.8048 8.96667 25.6448 9.9C26.5081 10.81 26.9398 12.1517 26.9398 13.925V18.475H18.3298V21.1C18.3298 21.8233 18.5515 22.3833 18.9948 22.78C19.4381 23.1767 20.0915 23.375 20.9548 23.375H25.8198V26H21.3048ZM24.0348 15.85V13.225C24.0348 12.6183 23.8365 12.1167 23.4398 11.72C23.0431 11.3233 22.5415 11.125 21.9348 11.125H20.6048C19.7648 11.125 19.1698 11.3233 18.8198 11.72C18.4931 12.0933 18.3298 12.6533 18.3298 13.4V15.85H24.0348ZM37.6085 26C35.5552 26 34.0502 25.5683 33.0935 24.705C32.1368 23.8183 31.6585 22.3833 31.6585 20.4V14.1C31.6585 12.14 32.1368 10.7167 33.0935 9.83C34.0735 8.94333 35.5785 8.5 37.6085 8.5H41.4235V11.125H37.2585C36.3952 11.125 35.7418 11.3233 35.2985 11.72C34.8552 12.1167 34.6335 12.6767 34.6335 13.4V21.1C34.6335 21.8233 34.8552 22.3833 35.2985 22.78C35.7418 23.1767 36.3952 23.375 37.2585 23.375H41.4235V26H37.6085ZM45.988 1.5H48.963V9.2C49.663 8.73333 50.538 8.5 51.588 8.5H52.498C54.388 8.5 55.788 8.94333 56.698 9.83C57.6313 10.7167 58.098 12.14 58.098 14.1V26H55.123V13.4C55.123 12.7 54.913 12.1517 54.493 11.755C54.0963 11.335 53.548 11.125 52.848 11.125H51.238C50.4913 11.125 49.9197 11.3233 49.523 11.72C49.1497 12.0933 48.963 12.5017 48.963 12.945V26H45.988V1.5ZM73.9522 26V14.73H66.7422V26H63.6972V1.5H66.7422V12.14H73.9522V1.5H76.9972V26H73.9522ZM82.5903 4.65V1.5H85.9153V4.65H82.5903ZM82.7653 26V8.5H85.7403V26H82.7653ZM98.7994 26H94.4944L89.7694 8.5H92.9544L96.7344 23.515L100.409 8.5H103.489L98.7994 26ZM112.599 26C110.545 26 109.04 25.5683 108.084 24.705C107.127 23.8183 106.649 22.3833 106.649 20.4V14.1C106.649 12.0933 107.08 10.6583 107.944 9.795C108.807 8.93167 110.242 8.5 112.249 8.5H113.194C114.85 8.5 116.099 8.96667 116.939 9.9C117.802 10.81 118.234 12.1517 118.234 13.925V18.475H109.624V21.1C109.624 21.8233 109.845 22.3833 110.289 22.78C110.732 23.1767 111.385 23.375 112.249 23.375H117.114V26H112.599ZM115.329 15.85V13.225C115.329 12.6183 115.13 12.1167 114.734 11.72C114.337 11.3233 113.835 11.125 113.229 11.125H111.899C111.059 11.125 110.464 11.3233 110.114 11.72C109.787 12.0933 109.624 12.6533 109.624 13.4V15.85H115.329Z" fill="#9F0000" shape-rendering="crispEdges"/>
<path d="M9.45756 4.16V3.91H9.20756V4.16H9.45756ZM9.45756 26V26.25H9.70756V26H9.45756ZM6.41256 26H6.16256V26.25H6.41256V26ZM6.41256 4.16H6.66256V3.91H6.41256V4.16ZM1.02256 4.16H0.772559V4.41H1.02256V4.16ZM1.02256 1.5V1.25H0.772559V1.5H1.02256ZM14.8476 1.5H15.0976V1.25H14.8476V1.5ZM14.8476 4.16V4.41H15.0976V4.16H14.8476ZM9.45756 4.16H9.20756V26H9.45756H9.70756V4.16H9.45756ZM9.45756 26V25.75H6.41256V26V26.25H9.45756V26ZM6.41256 26H6.66256V4.16H6.41256H6.16256V26H6.41256ZM6.41256 4.16V3.91H1.02256V4.16V4.41H6.41256V4.16ZM1.02256 4.16H1.27256V1.5H1.02256H0.772559V4.16H1.02256ZM1.02256 1.5V1.75H14.8476V1.5V1.25H1.02256V1.5ZM14.8476 1.5H14.5976V4.16H14.8476H15.0976V1.5H14.8476ZM14.8476 4.16V3.91H9.45756V4.16V4.41H14.8476V4.16ZM16.7898 24.705L16.6198 24.8884L16.6223 24.8906L16.7898 24.705ZM16.6498 9.795L16.473 9.61822L16.473 9.61822L16.6498 9.795ZM25.6448 9.9L25.4589 10.0673L25.4634 10.0721L25.6448 9.9ZM26.9398 18.475V18.725H27.1898V18.475H26.9398ZM18.3298 18.475V18.225H18.0798V18.475H18.3298ZM18.9948 22.78L19.1615 22.5937L19.1615 22.5937L18.9948 22.78ZM25.8198 23.375H26.0698V23.125H25.8198V23.375ZM25.8198 26V26.25H26.0698V26H25.8198ZM24.0348 15.85V16.1H24.2848V15.85H24.0348ZM23.4398 11.72L23.6166 11.5432L23.6166 11.5432L23.4398 11.72ZM18.8198 11.72L18.6323 11.5546L18.6316 11.5554L18.8198 11.72ZM18.3298 15.85H18.0798V16.1H18.3298V15.85ZM21.3048 26V25.75C19.2785 25.75 17.8474 25.3227 16.9573 24.5194L16.7898 24.705L16.6223 24.8906C17.6455 25.814 19.2244 26.25 21.3048 26.25V26ZM16.7898 24.705L16.9597 24.5216C16.0756 23.7022 15.6048 22.3498 15.6048 20.4H15.3548H15.1048C15.1048 22.4169 15.5906 23.9345 16.6198 24.8884L16.7898 24.705ZM15.3548 20.4H15.6048V14.1H15.3548H15.1048V20.4H15.3548ZM15.3548 14.1H15.6048C15.6048 12.119 16.0326 10.7657 16.8266 9.97178L16.6498 9.795L16.473 9.61822C15.5403 10.5509 15.1048 12.0676 15.1048 14.1H15.3548ZM16.6498 9.795L16.8266 9.97178C17.6205 9.17782 18.9738 8.75 20.9548 8.75V8.5V8.25C18.9224 8.25 17.4057 8.68552 16.473 9.61822L16.6498 9.795ZM20.9548 8.5V8.75H21.8998V8.5V8.25H20.9548V8.5ZM21.8998 8.5V8.75C23.5095 8.75 24.6803 9.20205 25.459 10.0672L25.6448 9.9L25.8306 9.73276C24.9293 8.73129 23.6035 8.25 21.8998 8.25V8.5ZM25.6448 9.9L25.4634 10.0721C26.2673 10.9194 26.6898 12.1891 26.6898 13.925H26.9398H27.1898C27.1898 12.1142 26.749 10.7006 25.8262 9.72793L25.6448 9.9ZM26.9398 13.925H26.6898V18.475H26.9398H27.1898V13.925H26.9398ZM26.9398 18.475V18.225H18.3298V18.475V18.725H26.9398V18.475ZM18.3298 18.475H18.0798V21.1H18.3298H18.5798V18.475H18.3298ZM18.3298 21.1H18.0798C18.0798 21.8778 18.3205 22.5121 18.8281 22.9663L18.9948 22.78L19.1615 22.5937C18.7824 22.2545 18.5798 21.7689 18.5798 21.1H18.3298ZM18.9948 22.78L18.8281 22.9663C19.3342 23.4192 20.0573 23.625 20.9548 23.625V23.375V23.125C20.1256 23.125 19.542 22.9342 19.1615 22.5937L18.9948 22.78ZM20.9548 23.375V23.625H25.8198V23.375V23.125H20.9548V23.375ZM25.8198 23.375H25.5698V26H25.8198H26.0698V23.375H25.8198ZM25.8198 26V25.75H21.3048V26V26.25H25.8198V26ZM24.0348 15.85H24.2848V13.225H24.0348H23.7848V15.85H24.0348ZM24.0348 13.225H24.2848C24.2848 12.558 24.0642 11.9908 23.6166 11.5432L23.4398 11.72L23.263 11.8968C23.6087 12.2425 23.7848 12.6787 23.7848 13.225H24.0348ZM23.4398 11.72L23.6166 11.5432C23.169 11.0956 22.6018 10.875 21.9348 10.875V11.125V11.375C22.4811 11.375 22.9173 11.551 23.263 11.8968L23.4398 11.72ZM21.9348 11.125V10.875H20.6048V11.125V11.375H21.9348V11.125ZM20.6048 11.125V10.875C19.7346 10.875 19.0517 11.0793 18.6323 11.5546L18.8198 11.72L19.0072 11.8854C19.2879 11.5673 19.795 11.375 20.6048 11.375V11.125ZM18.8198 11.72L18.6316 11.5554C18.2492 11.9925 18.0798 12.6224 18.0798 13.4H18.3298H18.5798C18.5798 12.6843 18.7371 12.1942 19.0079 11.8846L18.8198 11.72ZM18.3298 13.4H18.0798V15.85H18.3298H18.5798V13.4H18.3298ZM18.3298 15.85V16.1H24.0348V15.85V15.6H18.3298V15.85ZM33.0935 24.705L32.9235 24.8884L32.926 24.8906L33.0935 24.705ZM33.0935 9.83L32.9258 9.6446L32.9236 9.64664L33.0935 9.83ZM41.4235 8.5H41.6735V8.25H41.4235V8.5ZM41.4235 11.125V11.375H41.6735V11.125H41.4235ZM35.2985 11.72L35.4652 11.9063L35.4652 11.9063L35.2985 11.72ZM35.2985 22.78L35.4652 22.5937L35.4652 22.5937L35.2985 22.78ZM41.4235 23.375H41.6735V23.125H41.4235V23.375ZM41.4235 26V26.25H41.6735V26H41.4235ZM37.6085 26V25.75C35.5822 25.75 34.1511 25.3227 33.261 24.5194L33.0935 24.705L32.926 24.8906C33.9492 25.814 35.5282 26.25 37.6085 26.25V26ZM33.0935 24.705L33.2634 24.5216C32.3793 23.7022 31.9085 22.3498 31.9085 20.4H31.6585H31.4085C31.4085 22.4169 31.8944 23.9345 32.9236 24.8884L33.0935 24.705ZM31.6585 20.4H31.9085V14.1H31.6585H31.4085V20.4H31.6585ZM31.6585 14.1H31.9085C31.9085 12.1746 32.3788 10.8333 33.2634 10.0134L33.0935 9.83L32.9236 9.64664C31.8949 10.6001 31.4085 12.1054 31.4085 14.1H31.6585ZM33.0935 9.83L33.2612 10.0154C34.176 9.1877 35.6084 8.75 37.6085 8.75V8.5V8.25C35.5486 8.25 33.971 8.69896 32.9258 9.64462L33.0935 9.83ZM37.6085 8.5V8.75H41.4235V8.5V8.25H37.6085V8.5ZM41.4235 8.5H41.1735V11.125H41.4235H41.6735V8.5H41.4235ZM41.4235 11.125V10.875H37.2585V11.125V11.375H41.4235V11.125ZM37.2585 11.125V10.875C36.361 10.875 35.6379 11.0808 35.1318 11.5337L35.2985 11.72L35.4652 11.9063C35.8457 11.5658 36.4293 11.375 37.2585 11.375V11.125ZM35.2985 11.72L35.1318 11.5337C34.6242 11.9879 34.3835 12.6222 34.3835 13.4H34.6335H34.8835C34.8835 12.7311 35.0861 12.2455 35.4652 11.9063L35.2985 11.72ZM34.6335 13.4H34.3835V21.1H34.6335H34.8835V13.4H34.6335ZM34.6335 21.1H34.3835C34.3835 21.8778 34.6242 22.5121 35.1318 22.9663L35.2985 22.78L35.4652 22.5937C35.0861 22.2545 34.8835 21.7689 34.8835 21.1H34.6335ZM35.2985 22.78L35.1318 22.9663C35.6379 23.4192 36.361 23.625 37.2585 23.625V23.375V23.125C36.4293 23.125 35.8457 22.9342 35.4652 22.5937L35.2985 22.78ZM37.2585 23.375V23.625H41.4235V23.375V23.125H37.2585V23.375ZM41.4235 23.375H41.1735V26H41.4235H41.6735V23.375H41.4235ZM41.4235 26V25.75H37.6085V26V26.25H41.4235V26ZM45.988 1.5V1.25H45.738V1.5H45.988ZM48.963 1.5H49.213V1.25H48.963V1.5ZM48.963 9.2H48.713V9.66713L49.1017 9.40801L48.963 9.2ZM56.698 9.83L56.5235 10.0091L56.5258 10.0112L56.698 9.83ZM58.098 26V26.25H58.348V26H58.098ZM55.123 26H54.873V26.25H55.123V26ZM54.493 11.755L54.3112 11.9267L54.3161 11.9318L54.3213 11.9368L54.493 11.755ZM49.523 11.72L49.3462 11.5432L49.3462 11.5432L49.523 11.72ZM48.963 26V26.25H49.213V26H48.963ZM45.988 26H45.738V26.25H45.988V26ZM45.988 1.5V1.75H48.963V1.5V1.25H45.988V1.5ZM48.963 1.5H48.713V9.2H48.963H49.213V1.5H48.963ZM48.963 9.2L49.1017 9.40801C49.7515 8.97482 50.5751 8.75 51.588 8.75V8.5V8.25C50.5009 8.25 49.5745 8.49185 48.8243 8.99199L48.963 9.2ZM51.588 8.5V8.75H52.498V8.5V8.25H51.588V8.5ZM52.498 8.5V8.75C54.3542 8.75 55.6787 9.18588 56.5235 10.0091L56.698 9.83L56.8725 9.65094C55.8973 8.70079 54.4218 8.25 52.498 8.25V8.5ZM56.698 9.83L56.5258 10.0112C57.3886 10.8309 57.848 12.1731 57.848 14.1H58.098H58.348C58.348 12.1069 57.8741 10.6025 56.8702 9.64875L56.698 9.83ZM58.098 14.1H57.848V26H58.098H58.348V14.1H58.098ZM58.098 26V25.75H55.123V26V26.25H58.098V26ZM55.123 26H55.373V13.4H55.123H54.873V26H55.123ZM55.123 13.4H55.373C55.373 12.6469 55.145 12.0269 54.6646 11.5732L54.493 11.755L54.3213 11.9368C54.681 12.2764 54.873 12.7531 54.873 13.4H55.123ZM54.493 11.755L54.6747 11.5833C54.2211 11.103 53.6011 10.875 52.848 10.875V11.125V11.375C53.4949 11.375 53.9716 11.567 54.3112 11.9267L54.493 11.755ZM52.848 11.125V10.875H51.238V11.125V11.375H52.848V11.125ZM51.238 11.125V10.875C50.4477 10.875 49.8037 11.0858 49.3462 11.5432L49.523 11.72L49.6998 11.8968C50.0356 11.5609 50.5349 11.375 51.238 11.375V11.125ZM49.523 11.72L49.3462 11.5432C48.9356 11.9538 48.713 12.4229 48.713 12.945H48.963H49.213C49.213 12.5804 49.3637 12.2328 49.6998 11.8968L49.523 11.72ZM48.963 12.945H48.713V26H48.963H49.213V12.945H48.963ZM48.963 26V25.75H45.988V26V26.25H48.963V26ZM45.988 26H46.238V1.5H45.988H45.738V26H45.988ZM73.9522 26H73.7022V26.25H73.9522V26ZM73.9522 14.73H74.2022V14.48H73.9522V14.73ZM66.7422 14.73V14.48H66.4922V14.73H66.7422ZM66.7422 26V26.25H66.9922V26H66.7422ZM63.6972 26H63.4472V26.25H63.6972V26ZM63.6972 1.5V1.25H63.4472V1.5H63.6972ZM66.7422 1.5H66.9922V1.25H66.7422V1.5ZM66.7422 12.14H66.4922V12.39H66.7422V12.14ZM73.9522 12.14V12.39H74.2022V12.14H73.9522ZM73.9522 1.5V1.25H73.7022V1.5H73.9522ZM76.9972 1.5H77.2472V1.25H76.9972V1.5ZM76.9972 26V26.25H77.2472V26H76.9972ZM73.9522 26H74.2022V14.73H73.9522H73.7022V26H73.9522ZM73.9522 14.73V14.48H66.7422V14.73V14.98H73.9522V14.73ZM66.7422 14.73H66.4922V26H66.7422H66.9922V14.73H66.7422ZM66.7422 26V25.75H63.6972V26V26.25H66.7422V26ZM63.6972 26H63.9472V1.5H63.6972H63.4472V26H63.6972ZM63.6972 1.5V1.75H66.7422V1.5V1.25H63.6972V1.5ZM66.7422 1.5H66.4922V12.14H66.7422H66.9922V1.5H66.7422ZM66.7422 12.14V12.39H73.9522V12.14V11.89H66.7422V12.14ZM73.9522 12.14H74.2022V1.5H73.9522H73.7022V12.14H73.9522ZM73.9522 1.5V1.75H76.9972V1.5V1.25H73.9522V1.5ZM76.9972 1.5H76.7472V26H76.9972H77.2472V1.5H76.9972ZM76.9972 26V25.75H73.9522V26V26.25H76.9972V26ZM82.5903 4.65H82.3403V4.9H82.5903V4.65ZM82.5903 1.5V1.25H82.3403V1.5H82.5903ZM85.9153 1.5H86.1653V1.25H85.9153V1.5ZM85.9153 4.65V4.9H86.1653V4.65H85.9153ZM82.7653 26H82.5153V26.25H82.7653V26ZM82.7653 8.5V8.25H82.5153V8.5H82.7653ZM85.7403 8.5H85.9903V8.25H85.7403V8.5ZM85.7403 26V26.25H85.9903V26H85.7403ZM82.5903 4.65H82.8403V1.5H82.5903H82.3403V4.65H82.5903ZM82.5903 1.5V1.75H85.9153V1.5V1.25H82.5903V1.5ZM85.9153 1.5H85.6653V4.65H85.9153H86.1653V1.5H85.9153ZM85.9153 4.65V4.4H82.5903V4.65V4.9H85.9153V4.65ZM82.7653 26H83.0153V8.5H82.7653H82.5153V26H82.7653ZM82.7653 8.5V8.75H85.7403V8.5V8.25H82.7653V8.5ZM85.7403 8.5H85.4903V26H85.7403H85.9903V8.5H85.7403ZM85.7403 26V25.75H82.7653V26V26.25H85.7403V26ZM98.7994 26V26.25H98.9913L99.0409 26.0647L98.7994 26ZM94.4944 26L94.2531 26.0652L94.303 26.25H94.4944V26ZM89.7694 8.5V8.25H89.443L89.5281 8.56517L89.7694 8.5ZM92.9544 8.5L93.1969 8.43897L93.1493 8.25H92.9544V8.5ZM96.7344 23.515L96.492 23.576L96.9773 23.5744L96.7344 23.515ZM100.409 8.5V8.25H100.213L100.167 8.44057L100.409 8.5ZM103.489 8.5L103.731 8.56472L103.815 8.25H103.489V8.5ZM98.7994 26V25.75H94.4944V26V26.25H98.7994V26ZM94.4944 26L94.7358 25.9348L90.0108 8.43483L89.7694 8.5L89.5281 8.56517L94.2531 26.0652L94.4944 26ZM89.7694 8.5V8.75H92.9544V8.5V8.25H89.7694V8.5ZM92.9544 8.5L92.712 8.56103L96.492 23.576L96.7344 23.515L96.9769 23.454L93.1969 8.43897L92.9544 8.5ZM96.7344 23.515L96.9773 23.5744L100.652 8.55943L100.409 8.5L100.167 8.44057L96.4916 23.4556L96.7344 23.515ZM100.409 8.5V8.75H103.489V8.5V8.25H100.409V8.5ZM103.489 8.5L103.248 8.43528L98.558 25.9353L98.7994 26L99.0409 26.0647L103.731 8.56472L103.489 8.5ZM108.084 24.705L107.914 24.8884L107.916 24.8906L108.084 24.705ZM107.944 9.795L107.767 9.61822L107.767 9.61822L107.944 9.795ZM116.939 9.9L116.753 10.0673L116.757 10.0721L116.939 9.9ZM118.234 18.475V18.725H118.484V18.475H118.234ZM109.624 18.475V18.225H109.374V18.475H109.624ZM110.289 22.78L110.455 22.5937L110.455 22.5937L110.289 22.78ZM117.114 23.375H117.364V23.125H117.114V23.375ZM117.114 26V26.25H117.364V26H117.114ZM115.329 15.85V16.1H115.579V15.85H115.329ZM114.734 11.72L114.911 11.5432L114.911 11.5432L114.734 11.72ZM110.114 11.72L109.926 11.5546L109.926 11.5554L110.114 11.72ZM109.624 15.85H109.374V16.1H109.624V15.85ZM112.599 26V25.75C110.572 25.75 109.141 25.3227 108.251 24.5194L108.084 24.705L107.916 24.8906C108.939 25.814 110.518 26.25 112.599 26.25V26ZM108.084 24.705L108.254 24.5216C107.37 23.7022 106.899 22.3498 106.899 20.4H106.649H106.399C106.399 22.4169 106.885 23.9345 107.914 24.8884L108.084 24.705ZM106.649 20.4H106.899V14.1H106.649H106.399V20.4H106.649ZM106.649 14.1H106.899C106.899 12.119 107.327 10.7657 108.121 9.97178L107.944 9.795L107.767 9.61822C106.834 10.5509 106.399 12.0676 106.399 14.1H106.649ZM107.944 9.795L108.121 9.97178C108.914 9.17782 110.268 8.75 112.249 8.75V8.5V8.25C110.216 8.25 108.7 8.68552 107.767 9.61822L107.944 9.795ZM112.249 8.5V8.75H113.194V8.5V8.25H112.249V8.5ZM113.194 8.5V8.75C114.803 8.75 115.974 9.20205 116.753 10.0672L116.939 9.9L117.125 9.73276C116.223 8.73129 114.897 8.25 113.194 8.25V8.5ZM116.939 9.9L116.757 10.0721C117.561 10.9194 117.984 12.1891 117.984 13.925H118.234H118.484C118.484 12.1142 118.043 10.7006 117.12 9.72793L116.939 9.9ZM118.234 13.925H117.984V18.475H118.234H118.484V13.925H118.234ZM118.234 18.475V18.225H109.624V18.475V18.725H118.234V18.475ZM109.624 18.475H109.374V21.1H109.624H109.874V18.475H109.624ZM109.624 21.1H109.374C109.374 21.8778 109.614 22.5121 110.122 22.9663L110.289 22.78L110.455 22.5937C110.076 22.2545 109.874 21.7689 109.874 21.1H109.624ZM110.289 22.78L110.122 22.9663C110.628 23.4192 111.351 23.625 112.249 23.625V23.375V23.125C111.42 23.125 110.836 22.9342 110.455 22.5937L110.289 22.78ZM112.249 23.375V23.625H117.114V23.375V23.125H112.249V23.375ZM117.114 23.375H116.864V26H117.114H117.364V23.375H117.114ZM117.114 26V25.75H112.599V26V26.25H117.114V26ZM115.329 15.85H115.579V13.225H115.329H115.079V15.85H115.329ZM115.329 13.225H115.579C115.579 12.558 115.358 11.9908 114.911 11.5432L114.734 11.72L114.557 11.8968C114.903 12.2425 115.079 12.6787 115.079 13.225H115.329ZM114.734 11.72L114.911 11.5432C114.463 11.0956 113.896 10.875 113.229 10.875V11.125V11.375C113.775 11.375 114.211 11.551 114.557 11.8968L114.734 11.72ZM113.229 11.125V10.875H111.899V11.125V11.375H113.229V11.125ZM111.899 11.125V10.875C111.029 10.875 110.346 11.0793 109.926 11.5546L110.114 11.72L110.301 11.8854C110.582 11.5673 111.089 11.375 111.899 11.375V11.125ZM110.114 11.72L109.926 11.5554C109.543 11.9925 109.374 12.6224 109.374 13.4H109.624H109.874C109.874 12.6843 110.031 12.1942 110.302 11.8846L110.114 11.72ZM109.624 13.4H109.374V15.85H109.624H109.874V13.4H109.624ZM109.624 15.85V16.1H115.329V15.85V15.6H109.624V15.85Z" fill="#181872" fill-opacity="0.33"/>
</g>
<defs>
<filter id="filter0_d_94_4" x="0.272552" y="0.75" width="119.711" height="27" filterUnits="userSpaceOnUse" color-interpolation-filters="sRGB">
<feFlood flood-opacity="0" result="BackgroundImageFix"/>
<feColorMatrix in="SourceAlpha" type="matrix" values="0 0 0 0 0 0 0 0 0 0 0 0 0 0 0 0 0 0 127 0" result="hardAlpha"/>
<feOffset dx="0.5" dy="0.5"/>
<feGaussianBlur stdDeviation="0.5"/>
<feComposite in2="hardAlpha" operator="out"/>
<feColorMatrix type="matrix" values="0 0 0 0 0.447115 0 0 0 0 0.0902829 0 0 0 0 0.0902829 0 0 0 0.8 0"/>
<feBlend mode="normal" in2="BackgroundImageFix" result="effect1_dropShadow_94_4"/>
<feBlend mode="normal" in="SourceGraphic" in2="effect1_dropShadow_94_4" result="shape"/>
</filter>
</defs>
</svg>
